# xmcd CD database file
#
# Track frame offsets:
#	150
#	17262
#	41600
#	65952
#
# Disc length: 1241 seconds
#
# Revision: 0
# Processed by: cddbd v1.5.1PL0 Copyright (c) Steve Scherf et al.
# Submitted via: CDex 1.51
#
DISCID=2d04d704
DTITLE=ハイポジ - 口笛ふくのはもうやめた
DYEAR=1999
DGENRE=JPop
TTITLE0=口笛ふくのはもうやめた
TTITLE1=マイム マイム
TTITLE2=冒険者たち
TTITLE3=skinflint FPM LUXURY drum'n' base
EXTD=YEAR: 1999
EXTT0=
EXTT1=
EXTT2=
EXTT3=
PLAYORDER=
